<svg width="32" height="32" viewBox="0 0 32 32" fill="none" xmlns="http://www.w3.org/2000/svg">
<path d="M21.3333 8.37328C21.3332 9.17556 21.0159 9.94527 20.4507 10.5146C19.1493 11.8266 17.8867 13.1946 16.536 14.4586C16.3852 14.596 16.1874 14.6702 15.9835 14.666C15.7795 14.6618 15.585 14.5794 15.44 14.4359L11.5493 10.5159C10.9838 9.94623 10.6664 9.17603 10.6664 8.37328C10.6664 7.57052 10.9838 6.80032 11.5493 6.23061C11.8315 5.94632 12.1672 5.72068 12.537 5.56671C12.9068 5.41274 13.3034 5.33347 13.704 5.33347C14.1046 5.33347 14.5012 5.41274 14.871 5.56671C15.2408 5.72068 15.5765 5.94632 15.8587 6.23061L16 6.37328L16.1413 6.23061C16.5649 5.80243 17.1064 5.50998 17.6967 5.39051C18.287 5.27103 18.8996 5.32992 19.4563 5.55969C20.0131 5.78946 20.4889 6.1797 20.8231 6.68075C21.1574 7.18179 21.335 7.77097 21.3333 8.37328V8.37328Z" stroke="white" stroke-width="1.5" stroke-linejoin="round"/>
<path d="M24 26.6667L29.0987 21.568C29.2487 21.4181 29.3331 21.2148 29.3333 21.0027V14C29.3333 13.4696 29.1226 12.9609 28.7475 12.5858C28.3725 12.2107 27.8638 12 27.3333 12V12C26.8029 12 26.2942 12.2107 25.9191 12.5858C25.544 12.9609 25.3333 13.4696 25.3333 14V20" stroke="white" stroke-width="1.5" stroke-linecap="round" stroke-linejoin="round"/>
<path d="M24 21.3333L25.144 20.1893C25.2041 20.1293 25.2518 20.058 25.2843 19.9795C25.3167 19.9011 25.3334 19.8169 25.3333 19.732C25.3331 19.6121 25.2996 19.4946 25.2365 19.3927C25.1734 19.2907 25.0832 19.2083 24.976 19.1547L24.3853 18.86C23.8849 18.6098 23.3185 18.5233 22.7662 18.6128C22.2139 18.7023 21.7038 18.9632 21.308 19.3587L20.1147 20.552C19.6145 21.052 19.3335 21.7301 19.3333 22.4373V26.6667M8 26.6667L2.90133 21.568C2.75126 21.4181 2.66685 21.2148 2.66666 21.0027V14C2.66666 13.4696 2.87738 12.9609 3.25245 12.5858C3.62752 12.2107 4.13623 12 4.66666 12V12C5.1971 12 5.70581 12.2107 6.08088 12.5858C6.45595 12.9609 6.66666 13.4696 6.66666 14V20" stroke="white" stroke-width="1.5" stroke-linecap="round" stroke-linejoin="round"/>
<path d="M8 21.3332L6.856 20.1892C6.79595 20.1292 6.74833 20.0579 6.71584 19.9794C6.68336 19.9009 6.66665 19.8168 6.66666 19.7319V19.7319C6.66666 19.4879 6.80533 19.2652 7.024 19.1546L7.61466 18.8599C8.11508 18.6097 8.68151 18.5232 9.23379 18.6127C9.78607 18.7022 10.2962 18.9631 10.692 19.3586L11.8853 20.5519C12.3855 21.0519 12.6665 21.73 12.6667 22.4372V26.6666" stroke="white" stroke-width="1.5" stroke-linecap="round" stroke-linejoin="round"/>
</svg>
