<svg width="302" height="37" viewBox="0 0 302 37" fill="none" xmlns="http://www.w3.org/2000/svg">
<path d="M12 7.52148C6.20156 7.52148 1.5 12.223 1.5 18.0215C1.5 23.8199 6.20156 28.5215 12 28.5215C17.7984 28.5215 22.5 23.8199 22.5 18.0215C22.5 12.223 17.7984 7.52148 12 7.52148ZM12 26.7402C7.18594 26.7402 3.28125 22.8355 3.28125 18.0215C3.28125 13.2074 7.18594 9.30273 12 9.30273C16.8141 9.30273 20.7188 13.2074 20.7188 18.0215C20.7188 22.8355 16.8141 26.7402 12 26.7402ZM12.1312 14.2551C13.3734 14.2551 14.2172 15.0473 14.3109 16.2098C14.318 16.3082 14.4 16.3832 14.4984 16.3832H15.8273C15.8883 16.3832 15.9375 16.334 15.9375 16.273C15.9375 14.241 14.3344 12.8184 12.1242 12.8184C9.54844 12.8184 8.0625 14.5574 8.0625 17.4309V18.6566C8.0625 21.509 9.54844 23.2246 12.1242 23.2246C14.3273 23.2246 15.9375 21.8465 15.9375 19.9105C15.9375 19.8496 15.8883 19.8004 15.8273 19.8004H14.4961C14.3977 19.8004 14.318 19.8754 14.3086 19.9715C14.2102 21.052 13.3688 21.7949 12.1289 21.7949C10.5984 21.7949 9.73594 20.6723 9.73594 18.6637V17.4309C9.73828 15.3918 10.6031 14.2551 12.1312 14.2551V14.2551Z" fill="#F8F8F8"/>
<path d="M50.098 15.2375C50.098 15.8735 49.948 16.4735 49.648 17.0375C49.348 17.6015 48.868 18.0635 48.208 18.4235C47.548 18.7715 46.702 18.9455 45.67 18.9455H43.402V24.0215H41.35V11.5115H45.67C46.63 11.5115 47.44 11.6795 48.1 12.0155C48.772 12.3395 49.27 12.7835 49.594 13.3475C49.93 13.9115 50.098 14.5415 50.098 15.2375ZM45.67 17.2715C46.45 17.2715 47.032 17.0975 47.416 16.7495C47.8 16.3895 47.992 15.8855 47.992 15.2375C47.992 13.8695 47.218 13.1855 45.67 13.1855H43.402V17.2715H45.67ZM56.3571 24.1835C55.4211 24.1835 54.5751 23.9735 53.8191 23.5535C53.0631 23.1215 52.4691 22.5215 52.0371 21.7535C51.6051 20.9735 51.3891 20.0735 51.3891 19.0535C51.3891 18.0455 51.6111 17.1515 52.0551 16.3715C52.4991 15.5915 53.1051 14.9915 53.8731 14.5715C54.6411 14.1515 55.4991 13.9415 56.4471 13.9415C57.3951 13.9415 58.2531 14.1515 59.0211 14.5715C59.7891 14.9915 60.3951 15.5915 60.8391 16.3715C61.2831 17.1515 61.5051 18.0455 61.5051 19.0535C61.5051 20.0615 61.2771 20.9555 60.8211 21.7355C60.3651 22.5155 59.7411 23.1215 58.9491 23.5535C58.1691 23.9735 57.3051 24.1835 56.3571 24.1835ZM56.3571 22.4015C56.8851 22.4015 57.3771 22.2755 57.8331 22.0235C58.3011 21.7715 58.6791 21.3935 58.9671 20.8895C59.2551 20.3855 59.3991 19.7735 59.3991 19.0535C59.3991 18.3335 59.2611 17.7275 58.9851 17.2355C58.7091 16.7315 58.3431 16.3535 57.8871 16.1015C57.4311 15.8495 56.9391 15.7235 56.4111 15.7235C55.8831 15.7235 55.3911 15.8495 54.9351 16.1015C54.4911 16.3535 54.1371 16.7315 53.8731 17.2355C53.6091 17.7275 53.4771 18.3335 53.4771 19.0535C53.4771 20.1215 53.7471 20.9495 54.2871 21.5375C54.8391 22.1135 55.5291 22.4015 56.3571 22.4015ZM64.5776 12.7895C64.2056 12.7895 63.8936 12.6635 63.6416 12.4115C63.3896 12.1595 63.2636 11.8475 63.2636 11.4755C63.2636 11.1035 63.3896 10.7915 63.6416 10.5395C63.8936 10.2875 64.2056 10.1615 64.5776 10.1615C64.9376 10.1615 65.2436 10.2875 65.4956 10.5395C65.7476 10.7915 65.8736 11.1035 65.8736 11.4755C65.8736 11.8475 65.7476 12.1595 65.4956 12.4115C65.2436 12.6635 64.9376 12.7895 64.5776 12.7895ZM65.5856 25.9655C65.5856 26.9375 65.3396 27.6395 64.8476 28.0715C64.3676 28.5155 63.6656 28.7375 62.7416 28.7375H61.6796V27.0095H62.3816C62.8016 27.0095 63.0956 26.9255 63.2636 26.7575C63.4436 26.6015 63.5336 26.3375 63.5336 25.9655V14.1035H65.5856V25.9655ZM72.5817 24.1835C71.6457 24.1835 70.7997 23.9735 70.0437 23.5535C69.2877 23.1215 68.6937 22.5215 68.2617 21.7535C67.8297 20.9735 67.6137 20.0735 67.6137 19.0535C67.6137 18.0455 67.8357 17.1515 68.2797 16.3715C68.7237 15.5915 69.3297 14.9915 70.0977 14.5715C70.8657 14.1515 71.7237 13.9415 72.6717 13.9415C73.6197 13.9415 74.4777 14.1515 75.2457 14.5715C76.0137 14.9915 76.6197 15.5915 77.0637 16.3715C77.5077 17.1515 77.7297 18.0455 77.7297 19.0535C77.7297 20.0615 77.5017 20.9555 77.0457 21.7355C76.5897 22.5155 75.9657 23.1215 75.1737 23.5535C74.3937 23.9735 73.5297 24.1835 72.5817 24.1835ZM72.5817 22.4015C73.1097 22.4015 73.6017 22.2755 74.0577 22.0235C74.5257 21.7715 74.9037 21.3935 75.1917 20.8895C75.4797 20.3855 75.6237 19.7735 75.6237 19.0535C75.6237 18.3335 75.4857 17.7275 75.2097 17.2355C74.9337 16.7315 74.5677 16.3535 74.1117 16.1015C73.6557 15.8495 73.1637 15.7235 72.6357 15.7235C72.1077 15.7235 71.6157 15.8495 71.1597 16.1015C70.7157 16.3535 70.3617 16.7315 70.0977 17.2355C69.8337 17.7275 69.7017 18.3335 69.7017 19.0535C69.7017 20.1215 69.9717 20.9495 70.5117 21.5375C71.0637 22.1135 71.7537 22.4015 72.5817 22.4015ZM83.6822 19.0715L88.2542 24.0215H85.4822L81.8102 19.7555V24.0215H79.7582V10.7015H81.8102V18.4415L85.4102 14.1035H88.2542L83.6822 19.0715ZM101.097 17.5955C101.769 17.7155 102.339 18.0695 102.807 18.6575C103.275 19.2455 103.509 19.9115 103.509 20.6555C103.509 21.2915 103.341 21.8675 103.005 22.3835C102.681 22.8875 102.207 23.2895 101.583 23.5895C100.959 23.8775 100.233 24.0215 99.4048 24.0215H94.4008V11.5115H99.1708C100.023 11.5115 100.755 11.6555 101.367 11.9435C101.979 12.2315 102.441 12.6215 102.753 13.1135C103.065 13.5935 103.221 14.1335 103.221 14.7335C103.221 15.4535 103.029 16.0535 102.645 16.5335C102.261 17.0135 101.745 17.3675 101.097 17.5955ZM96.4528 16.7675H98.9908C99.6628 16.7675 100.185 16.6175 100.557 16.3175C100.941 16.0055 101.133 15.5615 101.133 14.9855C101.133 14.4215 100.941 13.9835 100.557 13.6715C100.185 13.3475 99.6628 13.1855 98.9908 13.1855H96.4528V16.7675ZM99.2248 22.3475C99.9208 22.3475 100.467 22.1795 100.863 21.8435C101.259 21.5075 101.457 21.0395 101.457 20.4395C101.457 19.8275 101.247 19.3415 100.827 18.9815C100.407 18.6215 99.8488 18.4415 99.1528 18.4415H96.4528V22.3475H99.2248ZM105.055 19.0175C105.055 18.0215 105.259 17.1395 105.667 16.3715C106.087 15.6035 106.651 15.0095 107.359 14.5895C108.079 14.1575 108.871 13.9415 109.735 13.9415C110.515 13.9415 111.193 14.0975 111.769 14.4095C112.357 14.7095 112.825 15.0875 113.173 15.5435V14.1035H115.243V24.0215H113.173V22.5455C112.825 23.0135 112.351 23.4035 111.751 23.7155C111.151 24.0275 110.467 24.1835 109.699 24.1835C108.847 24.1835 108.067 23.9675 107.359 23.5355C106.651 23.0915 106.087 22.4795 105.667 21.6995C105.259 20.9075 105.055 20.0135 105.055 19.0175ZM113.173 19.0535C113.173 18.3695 113.029 17.7755 112.741 17.2715C112.465 16.7675 112.099 16.3835 111.643 16.1195C111.187 15.8555 110.695 15.7235 110.167 15.7235C109.639 15.7235 109.147 15.8555 108.691 16.1195C108.235 16.3715 107.863 16.7495 107.575 17.2535C107.299 17.7455 107.161 18.3335 107.161 19.0175C107.161 19.7015 107.299 20.3015 107.575 20.8175C107.863 21.3335 108.235 21.7295 108.691 22.0055C109.159 22.2695 109.651 22.4015 110.167 22.4015C110.695 22.4015 111.187 22.2695 111.643 22.0055C112.099 21.7415 112.465 21.3575 112.741 20.8535C113.029 20.3375 113.173 19.7375 113.173 19.0535ZM117.254 19.0535C117.254 18.0335 117.458 17.1395 117.866 16.3715C118.286 15.5915 118.862 14.9915 119.594 14.5715C120.326 14.1515 121.166 13.9415 122.114 13.9415C123.314 13.9415 124.304 14.2295 125.084 14.8055C125.876 15.3695 126.41 16.1795 126.686 17.2355H124.472C124.292 16.7435 124.004 16.3595 123.608 16.0835C123.212 15.8075 122.714 15.6695 122.114 15.6695C121.274 15.6695 120.602 15.9695 120.098 16.5695C119.606 17.1575 119.36 17.9855 119.36 19.0535C119.36 20.1215 119.606 20.9555 120.098 21.5555C120.602 22.1555 121.274 22.4555 122.114 22.4555C123.302 22.4555 124.088 21.9335 124.472 20.8895H126.686C126.398 21.8975 125.858 22.7015 125.066 23.3015C124.274 23.8895 123.29 24.1835 122.114 24.1835C121.166 24.1835 120.326 23.9735 119.594 23.5535C118.862 23.1215 118.286 22.5215 117.866 21.7535C117.458 20.9735 117.254 20.0735 117.254 19.0535ZM128.047 19.0175C128.047 18.0215 128.251 17.1395 128.659 16.3715C129.079 15.6035 129.643 15.0095 130.351 14.5895C131.071 14.1575 131.863 13.9415 132.727 13.9415C133.507 13.9415 134.185 14.0975 134.761 14.4095C135.349 14.7095 135.817 15.0875 136.165 15.5435V14.1035H138.235V24.0215H136.165V22.5455C135.817 23.0135 135.343 23.4035 134.743 23.7155C134.143 24.0275 133.459 24.1835 132.691 24.1835C131.839 24.1835 131.059 23.9675 130.351 23.5355C129.643 23.0915 129.079 22.4795 128.659 21.6995C128.251 20.9075 128.047 20.0135 128.047 19.0175ZM136.165 19.0535C136.165 18.3695 136.021 17.7755 135.733 17.2715C135.457 16.7675 135.091 16.3835 134.635 16.1195C134.179 15.8555 133.687 15.7235 133.159 15.7235C132.631 15.7235 132.139 15.8555 131.683 16.1195C131.227 16.3715 130.855 16.7495 130.567 17.2535C130.291 17.7455 130.153 18.3335 130.153 19.0175C130.153 19.7015 130.291 20.3015 130.567 20.8175C130.855 21.3335 131.227 21.7295 131.683 22.0055C132.151 22.2695 132.643 22.4015 133.159 22.4015C133.687 22.4015 134.179 22.2695 134.635 22.0055C135.091 21.7415 135.457 21.3575 135.733 20.8535C136.021 20.3375 136.165 19.7375 136.165 19.0535ZM154.354 15.2375C154.354 15.8735 154.204 16.4735 153.904 17.0375C153.604 17.6015 153.124 18.0635 152.464 18.4235C151.804 18.7715 150.958 18.9455 149.926 18.9455H147.658V24.0215H145.606V11.5115H149.926C150.886 11.5115 151.696 11.6795 152.356 12.0155C153.028 12.3395 153.526 12.7835 153.85 13.3475C154.186 13.9115 154.354 14.5415 154.354 15.2375ZM149.926 17.2715C150.706 17.2715 151.288 17.0975 151.672 16.7495C152.056 16.3895 152.248 15.8855 152.248 15.2375C152.248 13.8695 151.474 13.1855 149.926 13.1855H147.658V17.2715H149.926ZM158.363 15.5435C158.663 15.0395 159.059 14.6495 159.551 14.3735C160.055 14.0855 160.649 13.9415 161.333 13.9415V16.0655H160.811C160.007 16.0655 159.395 16.2695 158.975 16.6775C158.567 17.0855 158.363 17.7935 158.363 18.8015V24.0215H156.311V14.1035H158.363V15.5435ZM167.521 24.1835C166.585 24.1835 165.739 23.9735 164.983 23.5535C164.227 23.1215 163.633 22.5215 163.201 21.7535C162.769 20.9735 162.553 20.0735 162.553 19.0535C162.553 18.0455 162.775 17.1515 163.219 16.3715C163.663 15.5915 164.269 14.9915 165.037 14.5715C165.805 14.1515 166.663 13.9415 167.611 13.9415C168.559 13.9415 169.417 14.1515 170.185 14.5715C170.953 14.9915 171.559 15.5915 172.003 16.3715C172.447 17.1515 172.669 18.0455 172.669 19.0535C172.669 20.0615 172.441 20.9555 171.985 21.7355C171.529 22.5155 170.905 23.1215 170.113 23.5535C169.333 23.9735 168.469 24.1835 167.521 24.1835ZM167.521 22.4015C168.049 22.4015 168.541 22.2755 168.997 22.0235C169.465 21.7715 169.843 21.3935 170.131 20.8895C170.419 20.3855 170.563 19.7735 170.563 19.0535C170.563 18.3335 170.425 17.7275 170.149 17.2355C169.873 16.7315 169.507 16.3535 169.051 16.1015C168.595 15.8495 168.103 15.7235 167.575 15.7235C167.047 15.7235 166.555 15.8495 166.099 16.1015C165.655 16.3535 165.301 16.7315 165.037 17.2355C164.773 17.7275 164.641 18.3335 164.641 19.0535C164.641 20.1215 164.911 20.9495 165.451 21.5375C166.003 22.1135 166.693 22.4015 167.521 22.4015ZM176.75 15.5795C177.098 15.0995 177.572 14.7095 178.172 14.4095C178.784 14.0975 179.462 13.9415 180.206 13.9415C181.082 13.9415 181.874 14.1515 182.582 14.5715C183.29 14.9915 183.848 15.5915 184.256 16.3715C184.664 17.1395 184.868 18.0215 184.868 19.0175C184.868 20.0135 184.664 20.9075 184.256 21.6995C183.848 22.4795 183.284 23.0915 182.564 23.5355C181.856 23.9675 181.07 24.1835 180.206 24.1835C179.438 24.1835 178.754 24.0335 178.154 23.7335C177.566 23.4335 177.098 23.0495 176.75 22.5815V24.0215H174.698V10.7015H176.75V15.5795ZM182.78 19.0175C182.78 18.3335 182.636 17.7455 182.348 17.2535C182.072 16.7495 181.7 16.3715 181.232 16.1195C180.776 15.8555 180.284 15.7235 179.756 15.7235C179.24 15.7235 178.748 15.8555 178.28 16.1195C177.824 16.3835 177.452 16.7675 177.164 17.2715C176.888 17.7755 176.75 18.3695 176.75 19.0535C176.75 19.7375 176.888 20.3375 177.164 20.8535C177.452 21.3575 177.824 21.7415 178.28 22.0055C178.748 22.2695 179.24 22.4015 179.756 22.4015C180.284 22.4015 180.776 22.2695 181.232 22.0055C181.7 21.7295 182.072 21.3335 182.348 20.8175C182.636 20.3015 182.78 19.7015 182.78 19.0175ZM191.199 24.1835C190.263 24.1835 189.417 23.9735 188.661 23.5535C187.905 23.1215 187.311 22.5215 186.879 21.7535C186.447 20.9735 186.231 20.0735 186.231 19.0535C186.231 18.0455 186.453 17.1515 186.897 16.3715C187.341 15.5915 187.947 14.9915 188.715 14.5715C189.483 14.1515 190.341 13.9415 191.289 13.9415C192.237 13.9415 193.095 14.1515 193.863 14.5715C194.631 14.9915 195.237 15.5915 195.681 16.3715C196.125 17.1515 196.347 18.0455 196.347 19.0535C196.347 20.0615 196.119 20.9555 195.663 21.7355C195.207 22.5155 194.583 23.1215 193.791 23.5535C193.011 23.9735 192.147 24.1835 191.199 24.1835ZM191.199 22.4015C191.727 22.4015 192.219 22.2755 192.675 22.0235C193.143 21.7715 193.521 21.3935 193.809 20.8895C194.097 20.3855 194.241 19.7735 194.241 19.0535C194.241 18.3335 194.103 17.7275 193.827 17.2355C193.551 16.7315 193.185 16.3535 192.729 16.1015C192.273 15.8495 191.781 15.7235 191.253 15.7235C190.725 15.7235 190.233 15.8495 189.777 16.1015C189.333 16.3535 188.979 16.7315 188.715 17.2355C188.451 17.7275 188.319 18.3335 188.319 19.0535C188.319 20.1215 188.589 20.9495 189.129 21.5375C189.681 22.1135 190.371 22.4015 191.199 22.4015ZM200.427 10.7015V24.0215H198.375V10.7015H200.427ZM204.165 12.7895C203.793 12.7895 203.481 12.6635 203.229 12.4115C202.977 12.1595 202.851 11.8475 202.851 11.4755C202.851 11.1035 202.977 10.7915 203.229 10.5395C203.481 10.2875 203.793 10.1615 204.165 10.1615C204.525 10.1615 204.831 10.2875 205.083 10.5395C205.335 10.7915 205.461 11.1035 205.461 11.4755C205.461 11.8475 205.335 12.1595 205.083 12.4115C204.831 12.6635 204.525 12.7895 204.165 12.7895ZM205.173 14.1035V24.0215H203.121V14.1035H205.173ZM212.872 13.9415C213.652 13.9415 214.348 14.1035 214.96 14.4275C215.584 14.7515 216.07 15.2315 216.418 15.8675C216.766 16.5035 216.94 17.2715 216.94 18.1715V24.0215H214.906V18.4775C214.906 17.5895 214.684 16.9115 214.24 16.4435C213.796 15.9635 213.19 15.7235 212.422 15.7235C211.654 15.7235 211.042 15.9635 210.586 16.4435C210.142 16.9115 209.92 17.5895 209.92 18.4775V24.0215H207.868V14.1035H209.92V15.2375C210.256 14.8295 210.682 14.5115 211.198 14.2835C211.726 14.0555 212.284 13.9415 212.872 13.9415ZM223.553 13.9415C224.321 13.9415 224.999 14.0975 225.587 14.4095C226.187 14.7095 226.655 15.0875 226.991 15.5435V14.1035H229.061V24.1835C229.061 25.0955 228.869 25.9055 228.485 26.6135C228.101 27.3335 227.543 27.8975 226.811 28.3055C226.091 28.7135 225.227 28.9175 224.219 28.9175C222.875 28.9175 221.759 28.5995 220.871 27.9635C219.983 27.3395 219.479 26.4875 219.359 25.4075H221.393C221.549 25.9235 221.879 26.3375 222.383 26.6495C222.899 26.9735 223.511 27.1355 224.219 27.1355C225.047 27.1355 225.713 26.8835 226.217 26.3795C226.733 25.8755 226.991 25.1435 226.991 24.1835V22.5275C226.643 22.9955 226.169 23.3915 225.569 23.7155C224.981 24.0275 224.309 24.1835 223.553 24.1835C222.689 24.1835 221.897 23.9675 221.177 23.5355C220.469 23.0915 219.905 22.4795 219.485 21.6995C219.077 20.9075 218.873 20.0135 218.873 19.0175C218.873 18.0215 219.077 17.1395 219.485 16.3715C219.905 15.6035 220.469 15.0095 221.177 14.5895C221.897 14.1575 222.689 13.9415 223.553 13.9415ZM226.991 19.0535C226.991 18.3695 226.847 17.7755 226.559 17.2715C226.283 16.7675 225.917 16.3835 225.461 16.1195C225.005 15.8555 224.513 15.7235 223.985 15.7235C223.457 15.7235 222.965 15.8555 222.509 16.1195C222.053 16.3715 221.681 16.7495 221.393 17.2535C221.117 17.7455 220.979 18.3335 220.979 19.0175C220.979 19.7015 221.117 20.3015 221.393 20.8175C221.681 21.3335 222.053 21.7295 222.509 22.0055C222.977 22.2695 223.469 22.4015 223.985 22.4015C224.513 22.4015 225.005 22.2695 225.461 22.0055C225.917 21.7415 226.283 21.3575 226.559 20.8535C226.847 20.3375 226.991 19.7375 226.991 19.0535ZM235.752 13.9415C236.52 13.9415 237.198 14.0975 237.786 14.4095C238.386 14.7095 238.854 15.0875 239.19 15.5435V14.1035H241.26V24.1835C241.26 25.0955 241.068 25.9055 240.684 26.6135C240.3 27.3335 239.742 27.8975 239.01 28.3055C238.29 28.7135 237.426 28.9175 236.418 28.9175C235.074 28.9175 233.958 28.5995 233.07 27.9635C232.182 27.3395 231.678 26.4875 231.558 25.4075H233.592C233.748 25.9235 234.078 26.3375 234.582 26.6495C235.098 26.9735 235.71 27.1355 236.418 27.1355C237.246 27.1355 237.912 26.8835 238.416 26.3795C238.932 25.8755 239.19 25.1435 239.19 24.1835V22.5275C238.842 22.9955 238.368 23.3915 237.768 23.7155C237.18 24.0275 236.508 24.1835 235.752 24.1835C234.888 24.1835 234.096 23.9675 233.376 23.5355C232.668 23.0915 232.104 22.4795 231.684 21.6995C231.276 20.9075 231.072 20.0135 231.072 19.0175C231.072 18.0215 231.276 17.1395 231.684 16.3715C232.104 15.6035 232.668 15.0095 233.376 14.5895C234.096 14.1575 234.888 13.9415 235.752 13.9415ZM239.19 19.0535C239.19 18.3695 239.046 17.7755 238.758 17.2715C238.482 16.7675 238.116 16.3835 237.66 16.1195C237.204 15.8555 236.712 15.7235 236.184 15.7235C235.656 15.7235 235.164 15.8555 234.708 16.1195C234.252 16.3715 233.88 16.7495 233.592 17.2535C233.316 17.7455 233.178 18.3335 233.178 19.0175C233.178 19.7015 233.316 20.3015 233.592 20.8175C233.88 21.3335 234.252 21.7295 234.708 22.0055C235.176 22.2695 235.668 22.4015 236.184 22.4015C236.712 22.4015 237.204 22.2695 237.66 22.0055C238.116 21.7415 238.482 21.3575 238.758 20.8535C239.046 20.3375 239.19 19.7375 239.19 19.0535ZM248.257 24.1835C247.321 24.1835 246.475 23.9735 245.719 23.5535C244.963 23.1215 244.369 22.5215 243.937 21.7535C243.505 20.9735 243.289 20.0735 243.289 19.0535C243.289 18.0455 243.511 17.1515 243.955 16.3715C244.399 15.5915 245.005 14.9915 245.773 14.5715C246.541 14.1515 247.399 13.9415 248.347 13.9415C249.295 13.9415 250.153 14.1515 250.921 14.5715C251.689 14.9915 252.295 15.5915 252.739 16.3715C253.183 17.1515 253.405 18.0455 253.405 19.0535C253.405 20.0615 253.177 20.9555 252.721 21.7355C252.265 22.5155 251.641 23.1215 250.849 23.5535C250.069 23.9735 249.205 24.1835 248.257 24.1835ZM248.257 22.4015C248.785 22.4015 249.277 22.2755 249.733 22.0235C250.201 21.7715 250.579 21.3935 250.867 20.8895C251.155 20.3855 251.299 19.7735 251.299 19.0535C251.299 18.3335 251.161 17.7275 250.885 17.2355C250.609 16.7315 250.243 16.3535 249.787 16.1015C249.331 15.8495 248.839 15.7235 248.311 15.7235C247.783 15.7235 247.291 15.8495 246.835 16.1015C246.391 16.3535 246.037 16.7315 245.773 17.2355C245.509 17.7275 245.377 18.3335 245.377 19.0535C245.377 20.1215 245.647 20.9495 246.187 21.5375C246.739 22.1135 247.429 22.4015 248.257 22.4015ZM260.974 21.2315C262.126 20.2355 263.032 19.4195 263.692 18.7835C264.364 18.1355 264.922 17.4635 265.366 16.7675C265.81 16.0715 266.032 15.3755 266.032 14.6795C266.032 13.9595 265.858 13.3955 265.51 12.9875C265.174 12.5795 264.64 12.3755 263.908 12.3755C263.2 12.3755 262.648 12.6035 262.252 13.0595C261.868 13.5035 261.664 14.1035 261.64 14.8595H259.66C259.696 13.4915 260.104 12.4475 260.884 11.7275C261.676 10.9955 262.678 10.6295 263.89 10.6295C265.198 10.6295 266.218 10.9895 266.95 11.7095C267.694 12.4295 268.066 13.3895 268.066 14.5895C268.066 15.4535 267.844 16.2875 267.4 17.0915C266.968 17.8835 266.446 18.5975 265.834 19.2335C265.234 19.8575 264.466 20.5835 263.53 21.4115L262.72 22.1315H268.426V23.8415H259.678V22.3475L260.974 21.2315ZM270.228 17.2895C270.228 15.2135 270.576 13.5935 271.272 12.4295C271.98 11.2535 273.192 10.6655 274.908 10.6655C276.624 10.6655 277.83 11.2535 278.526 12.4295C279.234 13.5935 279.588 15.2135 279.588 17.2895C279.588 19.3895 279.234 21.0335 278.526 22.2215C277.83 23.3975 276.624 23.9855 274.908 23.9855C273.192 23.9855 271.98 23.3975 271.272 22.2215C270.576 21.0335 270.228 19.3895 270.228 17.2895ZM277.572 17.2895C277.572 16.3175 277.506 15.4955 277.374 14.8235C277.254 14.1515 277.002 13.6055 276.618 13.1855C276.234 12.7535 275.664 12.5375 274.908 12.5375C274.152 12.5375 273.582 12.7535 273.198 13.1855C272.814 13.6055 272.556 14.1515 272.424 14.8235C272.304 15.4955 272.244 16.3175 272.244 17.2895C272.244 18.2975 272.304 19.1435 272.424 19.8275C272.544 20.5115 272.796 21.0635 273.18 21.4835C273.576 21.9035 274.152 22.1135 274.908 22.1135C275.664 22.1135 276.234 21.9035 276.618 21.4835C277.014 21.0635 277.272 20.5115 277.392 19.8275C277.512 19.1435 277.572 18.2975 277.572 17.2895ZM282.894 21.2315C284.046 20.2355 284.952 19.4195 285.612 18.7835C286.284 18.1355 286.842 17.4635 287.286 16.7675C287.73 16.0715 287.952 15.3755 287.952 14.6795C287.952 13.9595 287.778 13.3955 287.43 12.9875C287.094 12.5795 286.56 12.3755 285.828 12.3755C285.12 12.3755 284.568 12.6035 284.172 13.0595C283.788 13.5035 283.584 14.1035 283.56 14.8595H281.58C281.616 13.4915 282.024 12.4475 282.804 11.7275C283.596 10.9955 284.598 10.6295 285.81 10.6295C287.118 10.6295 288.138 10.9895 288.87 11.7095C289.614 12.4295 289.986 13.3895 289.986 14.5895C289.986 15.4535 289.764 16.2875 289.32 17.0915C288.888 17.8835 288.366 18.5975 287.754 19.2335C287.154 19.8575 286.386 20.5835 285.45 21.4115L284.64 22.1315H290.346V23.8415H281.598V22.3475L282.894 21.2315ZM293.282 21.2315C294.434 20.2355 295.34 19.4195 296 18.7835C296.672 18.1355 297.23 17.4635 297.674 16.7675C298.118 16.0715 298.34 15.3755 298.34 14.6795C298.34 13.9595 298.166 13.3955 297.818 12.9875C297.482 12.5795 296.948 12.3755 296.216 12.3755C295.508 12.3755 294.956 12.6035 294.56 13.0595C294.176 13.5035 293.972 14.1035 293.948 14.8595H291.968C292.004 13.4915 292.412 12.4475 293.192 11.7275C293.984 10.9955 294.986 10.6295 296.198 10.6295C297.506 10.6295 298.526 10.9895 299.258 11.7095C300.002 12.4295 300.374 13.3895 300.374 14.5895C300.374 15.4535 300.152 16.2875 299.708 17.0915C299.276 17.8835 298.754 18.5975 298.142 19.2335C297.542 19.8575 296.774 20.5835 295.838 21.4115L295.028 22.1315H300.734V23.8415H291.986V22.3475L293.282 21.2315Z" fill="white"/>
</svg>
