<svg width="80" height="80" viewBox="0 0 80 80" fill="none" xmlns="http://www.w3.org/2000/svg">
<path d="M40 0C29.3913 -1.26507e-07 19.2172 4.21427 11.7157 11.7157C4.21427 19.2172 9.27439e-07 29.3913 0 40C-9.27438e-07 50.6087 4.21427 60.7828 11.7157 68.2843C19.2172 75.7857 29.3913 80 40 80L40 69.8966C32.0709 69.8966 24.4666 66.7468 18.8599 61.1401C13.2532 55.5334 10.1034 47.9291 10.1034 40C10.1034 32.0709 13.2532 24.4666 18.8599 18.8599C24.4666 13.2532 32.0709 10.1034 40 10.1034V0Z" fill="#008F76"/>
<path d="M40 0C50.6087 -1.26507e-07 60.7828 4.21427 68.2843 11.7157C75.7857 19.2172 80 29.3913 80 40C80 50.6087 75.7857 60.7828 68.2843 68.2843C60.7828 75.7857 50.6087 80 40 80L40 69.8966C47.9291 69.8966 55.5334 66.7468 61.1401 61.1401C66.7468 55.5334 69.8966 47.9291 69.8966 40C69.8966 32.0709 66.7468 24.4666 61.1401 18.8599C55.5334 13.2532 47.9291 10.1034 40 10.1034V0Z" fill="#A6A6A6"/>
</svg>
