<svg width="32" height="34" viewBox="0 0 32 34" fill="none" xmlns="http://www.w3.org/2000/svg">
<g clip-path="url(#clip0_2_199)">
<path d="M8.45788 28.5404L8.981 28.802C11.161 30.1099 13.6024 30.7202 16.0439 30.7202C23.717 30.7202 29.995 24.4422 29.995 16.7691C29.995 13.107 28.5126 9.53199 25.8969 6.91612C23.281 4.30024 19.7931 2.81799 16.0439 2.81799C8.37075 2.81799 2.09263 9.09599 2.17988 16.8564C2.17988 19.4721 2.96463 22.0009 4.2725 24.1806L4.62125 24.7039L3.22625 29.8484L8.45788 28.5404Z" fill="#00E676"/>
<path d="M27.3791 5.521C24.4145 2.46925 20.3164 0.8125 16.131 0.8125C7.23725 0.8125 0.08725 8.04963 0.174375 16.8563C0.174375 19.6465 0.959125 22.3496 2.26712 24.791L0 33.0745L8.45788 30.8946C10.8121 32.2026 13.4279 32.813 16.0439 32.813C24.8505 32.813 32.0005 25.5758 32.0005 16.7692C32.0005 12.4966 30.3438 8.48562 27.3792 5.521H27.3791ZM16.131 30.11C13.7768 30.11 11.4225 29.4998 9.417 28.279L8.89388 28.0174L3.83663 29.3253L5.1445 24.3552L4.79575 23.832C0.959125 17.6413 2.79025 9.44475 9.06825 5.60813C15.3462 1.77163 23.4554 3.60275 27.292 9.88075C31.1285 16.1587 29.2974 24.2679 23.0195 28.1045C21.0139 29.4124 18.5725 30.1099 16.131 30.1099V30.11ZM23.8041 20.4315L22.845 19.9955C22.845 19.9955 21.45 19.3851 20.578 18.9491C20.4907 18.9491 20.4036 18.8619 20.3164 18.8619C20.0548 18.8619 19.8804 18.9491 19.706 19.0364C19.706 19.0364 19.6189 19.1235 18.3981 20.5186C18.3109 20.693 18.1365 20.7803 17.9621 20.7803H17.8749C17.7877 20.7803 17.6134 20.693 17.5261 20.6059L17.0901 20.4315C16.131 19.9955 15.2591 19.4722 14.5615 18.7747C14.3871 18.6004 14.1255 18.426 13.9511 18.2516C13.3407 17.6413 12.7304 16.9436 12.2945 16.1589L12.2072 15.9845C12.1201 15.8973 12.1201 15.8101 12.0329 15.6357C12.0329 15.4614 12.0329 15.287 12.1201 15.1997C12.1201 15.1997 12.4689 14.7638 12.7304 14.5022C12.9049 14.3277 12.992 14.0662 13.1664 13.8919C13.3407 13.6302 13.428 13.2815 13.3407 13.0199C13.2536 12.5839 12.2073 10.2296 11.9458 9.7065C11.7712 9.44487 11.597 9.35775 11.3354 9.2705H10.3763C10.2017 9.2705 10.0275 9.35775 9.853 9.35775L9.76575 9.44487C9.59138 9.53212 9.417 9.7065 9.24263 9.79362C9.06825 9.96813 8.981 10.1424 8.80663 10.3169C8.19625 11.1016 7.8475 12.0608 7.8475 13.0199C7.8475 13.7174 8.02187 14.415 8.2835 15.0254L8.37075 15.287C9.1555 16.9436 10.2017 18.426 11.597 19.7339L11.9458 20.0826C12.2073 20.3442 12.4689 20.5186 12.6433 20.7801C14.4744 22.3498 16.567 23.4832 18.9212 24.0936C19.1829 24.1807 19.5316 24.1807 19.7932 24.268H20.6651C21.1011 24.268 21.6243 24.0936 21.9731 23.9193C22.2346 23.7449 22.409 23.7449 22.5834 23.5705L22.7579 23.396C22.9323 23.2216 23.1066 23.1345 23.281 22.9601C23.4554 22.7857 23.6297 22.6114 23.717 22.4369C23.8914 22.0881 23.9785 21.6521 24.0658 21.2162V20.6059C24.0658 20.6059 23.9785 20.5186 23.8041 20.4315Z" fill="white"/>
</g>
<defs>
<clipPath id="clip0_2_199">
<rect width="32" height="32.375" fill="white" transform="translate(0 0.8125)"/>
</clipPath>
</defs>
</svg>
