<svg width="32" height="22" viewBox="0 0 32 22" fill="none" xmlns="http://www.w3.org/2000/svg">
<path d="M31.3335 3.67606C31.1524 3.0297 30.7994 2.44452 30.3122 1.98273C29.8113 1.50673 29.1973 1.16624 28.5282 0.993394C26.0242 0.333394 15.9922 0.333394 15.9922 0.333394C11.81 0.285811 7.62878 0.495093 3.47221 0.96006C2.80313 1.14568 2.1903 1.49378 1.68821 1.97339C1.19488 2.44806 0.837546 3.03339 0.650879 3.67473C0.20247 6.09039 -0.0153981 8.54319 0.000212559 11.0001C-0.0157874 13.4547 0.201546 15.9067 0.650879 18.3254C0.833546 18.9641 1.18955 19.5467 1.68421 20.0174C2.17888 20.4881 2.79488 20.8281 3.47221 21.0081C6.00955 21.6667 15.9922 21.6667 15.9922 21.6667C20.1798 21.7144 24.3663 21.5051 28.5282 21.0401C29.1973 20.8672 29.8113 20.5267 30.3122 20.0507C30.7992 19.589 31.1518 19.0038 31.3322 18.3574C31.7923 15.9427 32.0161 13.4888 32.0002 11.0307C32.0348 8.5622 31.8114 6.09681 31.3335 3.67473V3.67606ZM12.8029 15.5654V6.43606L21.1495 11.0014L12.8029 15.5654Z" fill="#212121"/>
</svg>
